<svg width="592" height="556" viewBox="0 0 592 556" fill="none" xmlns="http://www.w3.org/2000/svg">
<path d="M112.54 256.414C111.75 257.594 106.89 259.064 106.17 258.344C104.74 256.914 45.5796 254.624 24.0596 255.164C8.88957 255.544 0.30957 255.414 0.30957 254.784C0.30957 254.254 0.75957 253.814 1.30957 253.814C1.85957 253.814 2.30957 253.114 2.30957 252.254C2.30957 251.394 2.75957 250.974 3.30957 251.314C3.85957 251.654 4.30957 251.264 4.30957 250.454C4.30957 249.644 4.86957 248.774 5.55957 248.534C6.39957 248.234 6.02958 247.394 4.43958 245.974C2.25958 244.044 2.12956 243.404 2.81956 238.094C3.23956 234.914 3.76957 232.854 4.00957 233.504C4.24957 234.164 5.08957 234.454 5.86957 234.154C7.04957 233.694 7.30957 235.124 7.30957 242.104C7.30957 249.244 7.58957 250.724 9.05957 251.344C11.8496 252.544 57.3696 253.174 61.3396 252.074C63.7996 251.394 68.1796 251.524 75.8396 252.494C81.8696 253.264 92.6196 253.764 99.7196 253.604C112.26 253.324 114.31 253.774 112.54 256.414ZM511.08 285.244C511.27 285.444 510.16 286.234 508.61 287.014C506.11 288.264 504.76 288.174 496.76 286.264C490.38 284.744 486.9 283.334 484.88 281.464C482.38 279.154 481.24 278.834 475.91 278.964C472.56 279.044 471.06 279.304 472.58 279.534C474.1 279.764 475.08 280.384 474.75 280.914C474.42 281.444 472.73 281.624 470.98 281.314C465.1 280.264 432.82 279.014 431.81 279.794C431.26 280.214 427.28 280.784 422.97 281.044C416.96 281.414 415.02 281.214 414.62 280.174C414.33 279.424 413.02 278.814 411.7 278.814C410.39 278.814 409.31 278.434 409.31 277.984C409.31 277.524 412.01 277.304 415.31 277.494C428.29 278.254 433.77 278.244 460.04 277.404C485.32 276.594 487.31 276.654 487.92 278.254C488.52 279.794 492.18 281.934 494.81 282.274C495.36 282.344 495.73 282.854 495.63 283.404C495.52 283.984 498.66 284.504 503.08 284.644C507.28 284.784 510.88 285.054 511.08 285.244ZM18.1196 316.934C18.8396 317.164 16.7296 319.214 13.3896 321.524C10.0696 323.814 7.12956 325.324 6.84956 324.884C5.65956 322.954 1.22956 297.264 1.73956 295.234C2.07956 293.884 1.80957 292.814 1.05957 292.554C0.36957 292.324 1.26957 291.374 3.05957 290.454C4.84957 289.524 6.30957 289.224 6.30957 289.784C6.30957 290.354 7.54957 290.824 9.05957 290.834C10.5696 290.834 12.4896 291.284 13.3096 291.814C14.4796 292.574 14.2196 292.784 12.1196 292.794C10.6396 292.804 9.07958 293.374 8.65958 294.064C7.11958 296.544 7.18957 307.594 8.75957 311.354C10.0896 314.524 10.6396 314.944 12.7496 314.414C14.3096 314.024 15.4996 314.294 16.0096 315.164C16.4496 315.914 17.3996 316.704 18.1196 316.934ZM504.77 256.884C495.4 257.454 486.14 258.284 484.19 258.724C480.05 259.664 476.94 257.994 477.49 255.144C477.81 253.454 479.39 253.294 497.82 253.044C521.92 252.724 535.66 252.854 536.23 253.404C537.34 254.504 534.62 255.254 528.52 255.534C524.83 255.694 514.14 256.304 504.77 256.884ZM239.32 224.504C239.3 227.094 237.48 226.564 234.21 223.024C229.69 218.124 224.58 212.134 225.7 213.044C226.19 213.434 227.98 212.984 229.68 212.034C233.06 210.154 235.87 207.814 234.75 207.814C234.36 207.814 235.28 206.834 236.79 205.644L239.55 203.484L241.36 205.874C242.77 207.744 243.03 209.354 242.57 213.244C242.25 215.974 241.39 219.364 240.65 220.764C239.92 222.164 239.32 223.854 239.32 224.504ZM264.31 251.254C264.31 254.644 261.95 256.294 260.19 254.134C259.27 252.994 259.22 252.674 260.06 253.184C260.93 253.704 261.31 253.154 261.31 251.374C261.31 249.524 260.76 248.784 259.31 248.694C258.21 248.624 256.89 248.504 256.37 248.434C255.54 248.324 251.74 244.124 247.29 238.404C245.9 236.604 245.93 236.574 247.91 237.804C249.13 238.564 251.09 238.834 252.6 238.454C254.81 237.904 255.24 237.174 255.5 233.574L255.81 229.344L257.92 231.614C259.26 233.054 259.86 234.744 259.57 236.254C259.25 237.924 259.72 238.964 261.13 239.714C265.18 241.884 266.3 243.704 265.27 246.414C264.74 247.804 264.31 249.984 264.31 251.254ZM278.31 10.8137C278.17 9.99371 277.7 10.8837 277.29 12.8137C276.74 15.3437 276.57 14.0937 276.67 8.31371C276.8 0.903706 276.96 0.343702 278.81 0.653702C279.91 0.843702 282.5 1.2237 284.57 1.5137C286.63 1.7937 288.57 2.42371 288.88 2.92371C289.68 4.22371 298.71 4.01371 300.06 2.66371C300.69 2.03371 304.6 1.30371 308.76 1.03371L316.31 0.553711V4.0737C316.31 8.3937 314.08 9.5837 311.26 6.7637C309.41 4.9137 308.14 4.78371 294.53 5.03371L279.81 5.31371L279.19 8.81371C278.85 10.7437 278.45 11.6337 278.31 10.8137ZM287.16 109.564C287.24 119.604 287.16 127.814 286.98 127.814C286.8 127.814 286.15 126.804 285.54 125.564C281.01 116.354 279.55 94.3937 283.31 92.0437C285.2 90.8637 285.32 91.0637 285.46 95.5537L285.61 100.314L286.31 95.8137C286.74 93.0737 287.07 98.4437 287.16 109.564ZM341.17 242.104C338.34 245.524 335.64 248.464 335.18 248.644C334.36 248.964 332.31 244.734 332.31 242.744C332.31 242.234 331.86 241.814 331.31 241.814C329.4 241.814 330.32 236.264 332.85 232.544C335.24 229.024 336.5 227.884 336.15 229.564C335.84 231.064 337.85 234.324 339.31 234.704C340.14 234.924 342.05 235.024 343.56 234.944C345.07 234.854 346.31 235.034 346.31 235.344C346.31 235.654 344 238.694 341.17 242.104ZM141.06 280.144C131.57 280.494 122.8 281.064 121.56 281.414C119.44 282.014 118.85 281.504 119.24 279.414C119.33 278.914 115.87 278.764 111.31 279.074C105.4 279.484 103.31 279.314 103.59 278.474C103.8 277.834 104.83 277.154 105.87 276.944C109.19 276.304 158.31 278.014 158.31 278.774C158.31 279.174 150.55 279.794 141.06 280.144ZM327.12 259.904C325.3 262.154 322.88 265.144 321.74 266.544L319.66 269.104L316.99 266.224C315.51 264.634 314.31 263.084 314.31 262.774C314.31 262.464 315.68 260.054 317.35 257.414C319.87 253.444 320.63 252.834 321.85 253.844C322.99 254.794 323.63 254.794 324.77 253.854C326.34 252.544 328.71 253.354 327.77 254.884C327.45 255.394 327.92 255.814 328.81 255.814C330.02 255.814 329.6 256.834 327.12 259.904ZM105.05 94.0637C108.34 97.7337 105.47 95.3937 96.1596 86.8237C87.0596 78.4537 86.6096 77.8537 88.2796 76.3337C89.2596 75.4537 91.2396 74.5137 92.6896 74.2537C94.7896 73.8637 95.3096 74.1637 95.3096 75.7437C95.3096 78.5337 97.4096 82.8137 98.7796 82.8137C99.4096 82.8137 100.96 83.7737 102.21 84.9437C103.85 86.4637 104.35 87.8037 103.99 89.6937C103.68 91.2937 104.09 92.9937 105.05 94.0637ZM94.2796 268.854C92.3496 270.074 74.2296 269.614 68.3096 268.194C66.0496 267.654 66.2496 267.454 70.3096 266.204C75.9996 264.444 85.6696 264.134 90.6396 265.554C95.3496 266.884 96.1896 267.644 94.2796 268.854ZM107.31 228.394C107.31 228.624 99.3996 228.814 89.7296 228.814C76.0996 228.814 72.2396 228.534 72.5596 227.564C72.7996 226.874 73.8496 226.264 74.8996 226.214C75.9496 226.154 78.0696 226.044 79.6196 225.964C81.3996 225.864 82.1796 225.404 81.7396 224.704C81.2496 223.904 82.8496 223.784 87.4296 224.284C94.3796 225.054 107.31 227.724 107.31 228.394ZM518.77 227.744C519.46 228.864 503.9 229.524 493.31 228.814C489.19 228.544 486.28 228.014 486.85 227.634C487.79 227.024 507.43 223.814 510.25 223.814C510.9 223.814 511.18 224.204 510.89 224.694C510.59 225.174 512.11 225.844 514.27 226.194C516.43 226.534 518.45 227.234 518.77 227.744ZM6.62958 223.974C6.30958 225.564 5.71957 227.064 5.30957 227.314C4.61957 227.734 5.75957 219.814 6.77957 217.064C7.03957 216.374 8.40957 215.814 9.83957 215.814C11.2596 215.814 12.1796 216.214 11.8696 216.714C11.5696 217.204 12.0296 217.874 12.8996 218.214C15.5496 219.224 21.1196 218.884 21.5196 217.674C21.7896 216.864 24.4596 216.764 30.8596 217.304C43.4596 218.364 38.9296 219.864 21.0096 220.564L7.19957 221.094L6.62958 223.974ZM275.88 267.064C274.92 271.434 272.63 270.494 267.43 263.604C266.33 262.164 266.55 261.364 268.84 258.354C270.33 256.414 271.86 254.814 272.24 254.814C273.23 254.814 277.12 262.104 276.77 263.314C276.61 263.864 276.21 265.554 275.88 267.064ZM61.0596 296.644C57.6196 297.844 53.1196 298.834 51.0596 298.824C47.5596 298.814 47.3096 298.614 47.3096 295.814C47.3096 292.894 47.7696 292.564 51.8096 292.564C61.5196 292.564 67.3096 292.964 67.3096 293.634C67.3096 294.074 64.4996 295.434 61.0596 296.644ZM276.14 112.864C275.52 114.634 274.41 115.814 273.34 115.814C271.81 115.814 271.5 114.624 271.11 107.284C270.64 98.3437 271.07 92.8137 272.22 92.8137C272.6 92.8137 273.86 96.6637 275.04 101.364C276.69 108.004 276.94 110.574 276.14 112.864ZM515.23 268.994C509.25 269.904 499.26 269.854 496.81 268.894L494.81 268.114L496.81 267.514C497.91 267.194 500.99 266.624 503.66 266.244C507.11 265.754 508.12 265.284 507.16 264.614C505.84 263.694 512.92 264.264 518.1 265.504C521.67 266.354 520.11 268.244 515.23 268.994ZM94.9996 286.614C84.5296 289.084 83.5196 289.164 81.0596 287.734C77.9496 285.924 79.1896 284.814 84.3096 284.814C87.0596 284.814 89.3096 284.424 89.3096 283.954C89.3096 283.474 91.3296 282.814 93.7896 282.474C98.4196 281.834 104.31 282.544 104.31 283.744C104.31 284.114 100.12 285.404 94.9996 286.614ZM387.05 14.8637C385.63 17.1337 383.83 17.5037 384.66 15.3437C384.97 14.5337 384.87 13.6637 384.44 13.3937C384.01 13.1237 377.95 12.8337 370.98 12.7537L358.31 12.6037V10.1437C358.31 8.54371 358.71 7.94371 359.47 8.41371C360.1 8.80371 362.15 9.07371 364.01 9.00371C366.28 8.91371 367.16 9.2437 366.7 9.9937C366.2 10.7937 367.89 10.9637 372.66 10.5737C376.32 10.2837 379.31 10.3537 379.31 10.7337C379.31 11.1037 380.85 11.4637 382.74 11.5137C387.5 11.6537 388.54 12.4637 387.05 14.8637ZM582.7 220.784C581.54 220.804 578.61 221.014 576.2 221.264C572.43 221.644 554.47 219.704 550.99 218.534C550.34 218.324 554.02 217.824 559.16 217.434C565.32 216.964 568.94 217.094 569.79 217.794C570.49 218.384 573.29 218.784 576.01 218.684C578.72 218.584 581.81 219.014 582.88 219.634C584.75 220.714 584.74 220.754 582.7 220.784ZM586.23 321.124C585.67 323.154 584.67 324.784 584.01 324.744C582.37 324.654 574.7 318.814 576.22 318.814C576.88 318.814 577.2 318.444 576.92 317.994C576.64 317.544 577.97 316.614 579.86 315.934C581.76 315.244 583.31 314.054 583.31 313.284C583.31 311.104 586.06 312.664 586.69 315.194C587 316.424 586.79 319.094 586.23 321.124ZM314.22 209.604C313 216.764 311.31 220.224 311.31 215.574C311.31 214.274 310.86 212.764 310.3 212.204C309.62 211.524 309.62 209.454 310.3 205.864C310.86 202.934 311.38 198.014 311.47 194.924L311.62 189.314L312.22 194.314C312.71 198.454 313.13 199.264 314.65 199.004C316.01 198.764 316.35 199.154 315.97 200.504C315.69 201.494 314.9 205.594 314.22 209.604ZM309.87 282.314C306.39 285.564 305.59 285.864 304.34 284.354C303.33 283.134 303.78 281.664 306.8 276.274L310.49 269.674L312.31 272.994C313.99 276.064 314 276.504 312.53 278.814C311.66 280.194 310.46 281.764 309.87 282.314ZM307.18 248.334C306.13 255.414 305.52 256.694 303.98 255.144C303.61 254.784 303.38 248.594 303.46 241.394C303.54 234.204 303.8 229.604 304.04 231.174C304.27 232.744 305.33 235.564 306.38 237.434C308.11 240.514 308.19 241.574 307.18 248.334ZM443.05 92.6737C441.72 91.9637 440.7 92.0537 439.51 92.9937C438.59 93.7237 441.21 90.6037 445.33 86.0637C449.44 81.5237 453.26 77.9637 453.81 78.1437C454.36 78.3237 454.95 79.9337 455.13 81.7237C455.44 84.9337 455.4 84.9737 451.63 84.6437C447.83 84.3137 447.81 84.3337 447.49 88.3037C447.12 92.8137 445.78 94.1337 443.05 92.6737ZM496.66 85.9637C493.26 89.4437 490.34 91.1937 491.76 88.9037C492.07 88.3937 491.77 87.8037 491.1 87.5737C490.35 87.3237 490.91 86.2737 492.6 84.8137C494.49 83.1637 495.31 81.4837 495.31 79.2637C495.31 76.3037 495.52 76.1037 498.36 76.4337C500.19 76.6437 501.17 76.3937 500.8 75.8037C500.47 75.2537 500.56 74.8137 501.01 74.8137C501.46 74.8137 502.46 75.8237 503.23 77.0637C504.48 79.0737 504.46 79.1737 503.09 78.0337C501.81 76.9837 501.41 77.0637 500.77 78.5337C500.34 79.5137 500.09 80.7237 500.2 81.2137C500.32 81.7137 498.72 83.8537 496.66 85.9637ZM339.56 109.734C336.24 119.824 333.89 118.164 334.98 106.484C335.34 102.544 335.83 99.8737 336.06 100.564C336.29 101.254 337.09 101.814 337.84 101.814C340.47 101.814 341.14 104.934 339.56 109.734ZM287.12 244.564C287.22 254.054 287.14 261.814 286.94 261.814C286.43 261.814 284.48 251.494 283.69 244.564C283.14 239.704 283.28 238.814 284.62 238.814C285.85 238.814 286.29 237.494 286.57 233.064C286.77 229.904 287.02 235.074 287.12 244.564ZM271.15 165.064C271.24 172.624 271.15 178.814 270.95 178.814C270.75 178.814 269.59 173.814 268.38 167.704C267.16 161.594 265.9 155.894 265.57 155.044C265.17 154.014 265.37 153.734 266.14 154.204C266.78 154.604 267.32 155.914 267.33 157.124C267.34 158.904 267.52 159.034 268.31 157.814C269.09 156.614 269.31 156.814 269.45 158.814C269.55 160.194 269.93 159.064 270.31 156.314C270.8 152.774 271.04 155.334 271.15 165.064ZM542.56 295.884C535.51 296.524 531.03 296.314 528.46 295.234C525.34 293.924 524.15 292.504 526.56 292.974C527.25 293.104 530.55 292.884 533.9 292.484C537.24 292.084 540.73 292.034 541.65 292.394C543.29 293.024 544.01 295.754 542.56 295.884ZM590.31 254.924C590.31 256.044 582.37 255.854 571.31 254.474L562.81 253.414L569.81 252.794C581.14 251.774 590.31 252.734 590.31 254.924ZM151.47 91.5637C152.66 92.8037 153.13 93.8137 152.53 93.8137C151.92 93.8137 151.15 93.3637 150.81 92.8137C150.47 92.2637 148.64 91.8137 146.75 91.8137C143.49 91.8137 143.31 91.6337 143.31 88.3137C143.31 85.9337 142.85 84.8137 141.87 84.8137C139.82 84.8137 138.87 82.8537 140.26 81.4737C141.15 80.5937 142.37 81.3837 145.38 84.8137C147.55 87.2937 150.29 90.3237 151.47 91.5637ZM47.0896 276.814C42.8996 276.814 38.8696 277.004 38.1396 277.244C37.4096 277.484 35.9496 277.334 34.9096 276.924C33.4296 276.344 34.2696 275.784 38.7596 274.374C43.7696 272.794 45.0596 272.734 48.6596 273.864C55.5296 276.014 55.1096 276.814 47.0896 276.814ZM247.24 490.504C247.28 496.964 246.89 501.954 246.31 502.314C245.76 502.654 245.28 502.564 245.23 502.124C245.19 501.674 244.91 500.414 244.61 499.314C243.59 495.594 244.13 487.334 245.66 483.314C247.16 479.344 247.17 479.384 247.24 490.504ZM270.37 379.814C269.86 379.814 269.27 381.274 269.06 383.064C268.86 384.854 268.68 379.114 268.66 370.314C268.65 361.514 268.85 355.664 269.09 357.314C269.49 359.954 269.64 360.074 270.36 358.314C270.87 357.054 271.2 359.544 271.24 365.064C271.29 371.244 270.96 373.814 270.11 373.814C269.18 373.814 269.18 374.084 270.11 375.014C271.53 376.434 271.72 379.814 270.37 379.814ZM555.31 276.854C552.5 277.704 552.48 277.704 542.81 276.814C538.96 276.454 537.17 276.084 538.84 275.994C540.5 275.894 542.9 275.094 544.16 274.204C546.56 272.524 549.43 272.704 554.81 274.884L557.81 276.094L555.31 276.854ZM353.31 529.364C353.31 530.714 352.86 531.814 352.31 531.814C351.15 531.814 351.12 519.584 352.27 515.814C353.13 512.984 353.51 513.594 355.34 520.724C356.31 524.494 356.24 525.274 354.89 526.024C354.02 526.514 353.31 528.014 353.31 529.364ZM247.82 549.824C248.06 550.224 244.23 550.634 239.29 550.734L230.31 550.914L230.33 547.114C230.33 545.024 230.77 542.644 231.3 541.814C231.96 540.774 232.08 541.414 231.68 543.894C231.26 546.494 231.47 547.514 232.46 547.614C244.19 548.744 247.44 549.214 247.82 549.824ZM30.9296 310.814C30.7196 310.814 28.9496 311.484 26.9896 312.304C24.4896 313.344 23.2096 313.464 22.7496 312.714C22.3796 312.114 20.5496 311.804 18.6896 312.014C14.9596 312.454 13.8796 310.404 17.2696 309.324C20.0296 308.454 31.3096 308.974 31.3096 309.974C31.3096 310.434 31.1396 310.814 30.9296 310.814ZM337.31 465.534C337.31 466.794 336.86 467.814 336.31 467.814C335.12 467.814 334.97 453.894 336.15 452.044C336.74 451.114 337.24 451.384 338.04 453.044C340.15 457.434 340.3 458.994 338.81 461.114C337.98 462.294 337.31 464.284 337.31 465.534ZM255.33 110.144C255.62 115.184 255.76 119.474 255.65 119.654C255.54 119.844 254.35 116.504 253 112.224L250.55 104.444L252.68 102.714L254.81 100.974L255.33 110.144ZM470.84 235.864C471.28 236.574 468.39 236.864 461.9 236.734C456.63 236.644 452.31 236.214 452.31 235.784C452.31 234.264 462.01 232.584 464.16 233.734C465.27 234.324 467.08 234.814 468.19 234.814C469.29 234.814 470.48 235.284 470.84 235.864ZM322.69 170.654C322.07 173.754 321.3 174.464 319.98 173.144C319.61 172.784 319.35 167.264 319.39 160.894C319.43 154.524 319.7 149.884 319.97 150.574C320.25 151.264 321 151.534 321.65 151.174C322.39 150.754 322.36 151.004 321.56 151.864C319.83 153.734 319.99 162.404 321.82 165.184C322.8 166.694 323.11 168.584 322.69 170.654ZM255.28 459.814C255.28 463.934 254.84 467.984 254.31 468.814C253.61 469.894 253.34 468.974 253.33 465.504C253.32 462.554 252.92 460.934 252.31 461.314C251.02 462.114 251.05 461.094 252.49 454.864C254.06 448.064 255.28 450.234 255.28 459.814ZM319.21 105.064C319.27 111.524 319.09 116.814 318.81 116.814C318.53 116.814 318.26 116.254 318.19 115.564C318.13 114.874 317.97 113.864 317.85 113.314C317.72 112.764 317.54 110.964 317.45 109.314C317.31 106.904 317.07 106.614 316.22 107.814C314.88 109.714 315.71 104.174 317.72 97.7437C319.09 93.3937 319.11 93.5137 319.21 105.064ZM287.44 282.414C287.03 283.934 286.22 285.344 285.62 285.544C284.21 286.014 278.31 277.954 278.31 275.554C278.31 274.534 277.89 273.954 277.38 274.274C276.87 274.584 276.22 274.484 275.95 274.034C275.67 273.594 276.23 273.174 277.19 273.094C278.14 273.024 279.49 273.884 280.19 274.994C280.9 276.124 280.98 276.734 280.38 276.364C279.01 275.514 279.02 276.864 280.4 278.814C281.19 279.934 281.59 280.004 281.97 279.074C282.35 278.124 282.81 278.174 283.92 279.284C284.72 280.074 286 280.484 286.77 280.194C287.87 279.764 288.02 280.254 287.44 282.414ZM447.81 131.814C443.99 135.664 440.59 138.814 440.25 138.814C438.78 138.814 440.15 134.344 441.89 133.464C442.95 132.934 444.48 132.174 445.31 131.774C446.14 131.374 446.68 130.324 446.52 129.444C446.34 128.444 446.74 128.044 447.58 128.364C448.33 128.654 449.77 127.964 450.78 126.854C451.79 125.734 453.1 124.814 453.69 124.814C454.28 124.814 451.63 127.964 447.81 131.814ZM344.29 34.3137C344.17 33.7637 343.79 34.5937 343.44 36.1537C342.75 39.2437 341.32 38.7437 341.29 35.3937C341.28 33.6837 341.11 33.5837 340.31 34.8137C338.71 37.2937 339.18 35.3637 341.41 30.3237C343.17 26.3337 343.72 25.8037 344.85 26.9437C345.81 27.9337 345.95 29.2937 345.35 31.8137C344.89 33.7437 344.42 34.8637 344.29 34.3137ZM238.8 522.014C239.2 525.704 239.11 530.424 238.6 532.514L237.66 536.314L236.92 532.314C235.96 527.144 236.08 520.584 237.19 517.644C237.9 515.764 238.21 516.604 238.8 522.014ZM217.29 25.6837C217.27 30.4637 215.94 30.9037 213.3 26.9937L213.05 26.6237C211.15 23.8237 210.44 22.7637 210.72 22.2237C210.9 21.8737 211.5 21.7337 212.47 21.4837C215.38 20.7237 217.31 22.4037 217.29 25.6837ZM135.98 235.314C135.98 236.524 134.43 236.814 128.08 236.814C123.08 236.814 120.42 236.444 120.81 235.814C121.15 235.264 123.45 234.814 125.93 234.814C129.08 234.814 130.21 234.464 129.71 233.654C129.21 232.844 129.72 232.694 131.4 233.144C132.73 233.494 134.3 233.794 134.89 233.804C135.49 233.804 135.98 234.484 135.98 235.314ZM585.31 244.054C585.31 245.024 584.86 245.814 584.31 245.814C583 245.814 583.01 236.124 584.32 235.314C584.87 234.964 585.59 235.394 585.92 236.254C586.25 237.114 587.15 237.814 587.92 237.814C589.95 237.814 589.62 239.604 587.31 241.044C586.21 241.734 585.31 243.084 585.31 244.054ZM589.56 292.664C588.6 292.654 586.91 292.864 585.81 293.134C584.71 293.404 582.46 293.284 580.81 292.874C578.15 292.214 578.04 292.044 579.81 291.394C580.91 290.994 582.65 290.214 583.67 289.664C584.95 288.974 586.42 289.034 588.42 289.864C591.64 291.194 592.25 292.704 589.56 292.664ZM29.8096 283.814C29.0696 285.024 18.6396 285.164 17.9096 283.974C17.6296 283.524 18.9696 282.394 20.8896 281.474C24.6996 279.664 26.6996 279.274 24.3096 280.814C22.9796 281.674 22.9796 281.794 24.3096 281.914C25.1296 281.984 26.2596 282.154 26.8096 282.274C27.3596 282.404 28.3996 282.574 29.1196 282.664C29.8396 282.744 30.1496 283.264 29.8096 283.814ZM280.37 219.694C280.92 222.104 281.18 224.274 280.94 224.514C280.7 224.754 280.05 222.784 279.48 220.134C277.31 209.874 276.21 202.584 276.75 202.044C277.06 201.734 277.35 202.344 277.41 203.394C277.49 204.894 277.69 204.764 278.31 202.814C278.88 201.044 279.15 202.504 279.23 207.814C279.3 211.934 279.81 217.284 280.37 219.694ZM367.31 191.374C367.31 195.244 366.92 196.814 365.98 196.814C363.9 196.814 363.37 195.794 364.24 193.464C364.68 192.284 364.71 190.414 364.3 189.314C363.5 187.174 364.96 184.474 366.42 185.384C366.91 185.684 367.31 188.384 367.31 191.374ZM468.21 112.284C466.5 114.224 464.57 115.814 463.92 115.814C462.27 115.814 462.16 112.184 463.78 110.834C465.17 109.684 471.31 107.654 471.31 108.354C471.31 108.564 469.91 110.334 468.21 112.284ZM278.27 20.0137C278.98 21.1237 279.25 27.7637 279.06 39.0137C278.89 48.5337 278.66 53.3437 278.53 49.7237C278.41 46.0937 278.06 37.5437 277.75 30.7237C277.33 21.5837 277.47 18.7637 278.27 20.0137ZM262.73 427.064C262.89 430.774 262.94 433.814 262.83 433.814C261.95 433.814 261.31 431.964 261.29 429.394C261.28 426.964 261.06 426.634 260.24 427.814C259.05 429.524 259.98 421.774 261.37 418.314L262.18 416.314L262.31 418.314C262.38 419.414 262.57 423.354 262.73 427.064ZM196.1 147.564C194.17 149.904 191.57 149.004 191.1 145.834C190.38 140.934 191.92 139.864 194.71 143.314C196.45 145.474 196.84 146.664 196.1 147.564ZM263.24 130.894C263.2 134.424 262.82 138.194 262.4 139.274C261.72 141.014 261.55 140.894 260.92 138.274C260.53 136.644 259.96 134.474 259.66 133.434C259.29 132.224 259.48 131.804 260.2 132.244C260.81 132.624 261.34 132.344 261.38 131.624C261.52 129.254 262.35 125.444 262.83 124.954C263.1 124.694 263.28 127.364 263.24 130.894ZM164.01 243.424C164.15 244.154 161.39 244.604 156.04 244.734C151.54 244.844 148.23 244.564 148.67 244.124C149.12 243.674 150.91 243.274 152.65 243.224C160.06 243.004 160.89 242.834 159.31 241.814C158.07 241.014 158.15 240.844 159.81 240.844C162.12 240.844 163.72 241.834 164.01 243.424ZM573.1 311.214C570.12 311.814 563.43 311.504 562.15 310.714C560.55 309.724 564.02 308.814 569.33 308.814C574.46 308.814 576.99 310.434 573.1 311.214ZM365.69 267.354C366.15 268.554 365.03 268.804 359.53 268.744L352.81 268.674L357.21 266.724C361.82 264.674 364.74 264.894 365.69 267.354ZM223.95 11.6737C225.37 12.4937 223.33 12.7537 215.31 12.7537C205.34 12.7537 203.88 12.0237 210.64 10.4037C212.57 9.9537 213.26 10.0837 212.81 10.8237C212.34 11.5737 213.64 11.7037 217.11 11.2437C220.1 10.8537 222.82 11.0137 223.95 11.6737ZM353.31 210.814C353.31 214.244 351.48 214.764 349.01 212.034C347.51 210.374 347.57 210.024 349.85 207.284C351.2 205.644 352.04 205.104 351.7 206.064C351.36 207.044 351.58 207.814 352.2 207.814C352.81 207.814 353.31 209.164 353.31 210.814ZM362.31 549.314C362.31 550.694 361.97 551.734 361.56 551.644C361.15 551.544 358.9 551.294 356.56 551.084C351.49 550.624 350.84 548.814 355.75 548.814C357.64 548.814 359.47 548.364 359.81 547.814C360.95 545.974 362.31 546.784 362.31 549.314ZM362.33 55.2437C360.33 60.5337 358.22 56.7337 359.32 49.8137L359.87 46.3137L360.62 49.1037C361.03 50.6437 361.81 51.6237 362.34 51.2937C363.58 50.5337 363.58 51.9837 362.33 55.2437ZM379.28 25.6137C378.15 26.8237 376.79 27.8137 376.24 27.8137C374.75 27.8137 374.14 25.4437 375.02 23.1637C375.71 21.3837 376.15 21.2737 378.57 22.2737L381.33 23.4237L379.28 25.6137ZM359.73 203.204C357.33 204.124 357.14 203.994 357.46 201.564C357.62 200.324 357.44 198.814 357.06 198.214C356.68 197.604 357.02 196.254 357.81 195.214C359.15 193.434 359.25 193.524 359.28 196.564C359.3 198.354 359.76 199.814 360.31 199.814C361.92 199.814 361.46 202.544 359.73 203.204ZM211.02 171.184C210.81 171.804 209.89 172.464 208.98 172.634C207.57 172.914 207.31 172.024 207.31 166.884C207.31 163.544 207.75 160.814 208.29 160.814C208.83 160.814 209 162.114 208.67 163.774C208.26 165.804 208.59 167.244 209.74 168.384C210.65 169.294 211.23 170.554 211.02 171.184ZM335.23 52.0637C335.27 56.3237 335.09 59.8137 334.81 59.8137C334.53 59.8137 334.31 58.9337 334.31 57.8637C334.31 56.7837 333.83 54.8437 333.23 53.5437C332.41 51.7437 332.51 50.3537 333.65 47.7437L335.15 44.3137L335.23 52.0637ZM305.38 123.814C304.87 123.814 304.25 124.824 304.02 126.064C303.78 127.304 303.61 122.694 303.64 115.814C303.68 108.934 303.86 106.574 304.05 110.564C304.24 114.554 304.83 117.814 305.35 117.814C305.88 117.814 306.31 119.164 306.31 120.814C306.31 122.464 305.89 123.814 305.38 123.814ZM436.85 243.684C440.45 244.524 440.13 244.614 433.31 244.644C428.27 244.664 426.46 244.394 427.81 243.814C429.2 243.214 429.35 242.914 428.31 242.824C427.45 242.744 427.84 242.274 429.23 241.724C430.82 241.084 431.87 241.094 432.27 241.754C432.61 242.304 434.68 243.174 436.85 243.684ZM571.59 283.404C569.43 285.034 560.31 285.284 560.31 283.714C560.31 283.024 561.99 282.744 564.82 282.974C567.83 283.214 569.2 282.964 568.92 282.224C568.65 281.544 569.41 281.304 570.93 281.594C573.19 282.024 573.24 282.144 571.59 283.404ZM257.45 58.0637C257.37 59.0237 256.86 59.8137 256.31 59.8137C255.76 59.8137 255.31 57.6637 255.31 55.0237C255.31 50.7837 255.57 50.2237 257.55 50.0737C258.9 49.9637 259.31 50.1937 258.57 50.6537C257.91 51.0637 257.41 52.5037 257.48 53.8537C257.54 55.2037 257.53 57.1037 257.45 58.0637ZM491.67 67.3237C490.91 69.2937 485.31 69.3337 485.31 67.3737C485.31 65.3337 487.02 64.5237 489.83 65.2337C491.44 65.6337 492.05 66.3337 491.67 67.3237ZM378.75 200.594C377.08 202.984 376.46 203.194 374.61 202.024C372.98 200.984 374.29 199.154 377.58 197.904C380.69 196.724 380.99 197.404 378.75 200.594ZM47.0496 302.814C46.9096 302.814 45.3296 303.234 43.5296 303.754C41.5096 304.334 40.4896 304.334 40.8496 303.754C41.1696 303.234 40.6096 302.804 39.6196 302.794C38.0896 302.784 38.0396 302.634 39.3096 301.814C41.2896 300.534 47.3096 300.534 47.3096 301.814C47.3096 302.364 47.1896 302.814 47.0496 302.814ZM346.29 494.624C346.28 497.684 345.01 500.184 343.99 499.164C343.15 498.314 343.1 494.514 343.91 492.404C344.8 490.094 346.31 491.504 346.29 494.624ZM232.95 199.024C233.78 199.864 234.32 201.704 234.14 203.114C233.84 205.434 233.63 205.544 231.94 204.294C230.54 203.264 230.24 202.234 230.75 200.214C231.36 197.784 231.59 197.664 232.95 199.024ZM424.02 115.144C423.42 116.434 422.35 117.484 421.65 117.484C418.86 117.484 418.61 116.164 420.9 113.504C422.63 111.494 423.31 111.164 423.31 112.314C423.31 113.204 423.72 113.684 424.22 113.374C424.72 113.064 424.63 113.864 424.02 115.144ZM315.31 25.8137C315.31 29.7737 313.78 31.2137 312.67 28.3137C311.92 26.3437 313.07 21.8137 314.33 21.8137C314.87 21.8137 315.31 23.6137 315.31 25.8137ZM327.28 80.5637C327.3 83.6837 326.91 84.8137 325.81 84.8137C324.98 84.8137 324.31 84.1137 324.31 83.2537C324.31 82.3337 323.8 81.9537 323.06 82.3337C322.37 82.6737 322.52 82.3637 323.38 81.6337C324.25 80.9137 325.47 79.4137 326.1 78.3137C327.1 76.5737 327.25 76.8637 327.28 80.5637ZM367.91 210.664C367.02 212.094 366.61 212.104 365.75 210.714C364.78 209.154 367.74 206.544 370.86 206.214C373.45 205.934 373.47 205.984 371.73 207.904C370.74 208.994 369.36 209.664 368.66 209.394C367.95 209.124 367.07 209.404 366.69 210.014C366.24 210.734 366.46 210.834 367.31 210.314C368.18 209.774 368.38 209.894 367.91 210.664ZM125.13 110.094C125.72 110.804 125.86 111.924 125.45 112.584C124.96 113.384 122.74 111.724 118.76 107.574C115.49 104.154 114 102.394 115.45 103.664C116.91 104.924 118.29 105.594 118.54 105.134C118.78 104.684 118.87 104.824 118.72 105.444C118.37 106.984 120.35 108.814 122.39 108.814C123.31 108.814 124.54 109.394 125.13 110.094ZM383.31 168.314C383.31 170.794 382.9 172.814 382.39 172.814C381.07 172.814 380.68 171.074 381.13 167.204C381.71 162.244 383.31 163.064 383.31 168.314ZM246.81 230.814C247.15 231.364 246.83 232.654 246.11 233.684C244.85 235.484 244.72 235.454 242.88 233.024C241.83 231.624 241.5 230.814 242.14 231.204C242.78 231.604 243.31 231.454 243.31 230.874C243.31 229.534 245.99 229.484 246.81 230.814ZM188.31 277.564C188.31 277.974 184.59 278.394 180.06 278.494C173.26 278.644 172.51 278.524 175.81 277.804C180.82 276.714 188.31 276.564 188.31 277.564ZM552.14 302.794C551.22 302.804 549.87 303.024 549.14 303.284C548.41 303.534 546.69 303.104 545.31 302.314C542.83 300.894 542.84 300.884 546.81 300.864C549.01 300.854 551.48 301.284 552.31 301.814C553.61 302.654 553.58 302.784 552.14 302.794ZM415.14 126.844C415.3 132.074 415.17 132.394 412.81 132.584C410.58 132.774 410.44 132.584 411.51 130.864C412.17 129.814 413.04 129.154 413.45 129.404C413.86 129.654 414.37 127.934 414.58 125.584C414.93 121.694 414.98 121.804 415.14 126.844ZM250.53 30.0637C250.77 30.7537 250.4 32.4137 249.7 33.7537L248.44 36.1837L247.78 33.5537C247.11 30.8837 247.76 28.8137 249.26 28.8137C249.72 28.8137 250.29 29.3737 250.53 30.0637ZM103.31 66.8137C103.31 68.4037 102.65 68.8137 100.06 68.7937L96.8096 68.7737L99.3096 66.8137C102.49 64.3237 103.31 64.3237 103.31 66.8137ZM231.3 52.0637C231.31 57.2437 230.92 57.8137 229.36 54.9037C228.61 53.5137 228.74 52.2237 229.82 50.1537L231.3 47.3137V52.0637ZM399.19 144.564C399.28 147.654 398.92 148.814 397.87 148.814C395.67 148.814 394.92 146.824 396.63 145.494C397.46 144.844 398.35 143.414 398.61 142.314C398.87 141.214 399.13 142.224 399.19 144.564ZM387.69 285.794C389.14 287.244 388.41 287.374 382.31 286.814L376.81 286.314L381.75 285.554C384.74 285.094 387.09 285.194 387.69 285.794ZM239.16 67.0637C239.32 73.3037 238.99 73.9437 237.24 70.6837C236.49 69.2737 236.44 68.3537 237.12 67.9337C237.67 67.5937 238.33 65.9537 238.57 64.3137C238.83 62.5537 239.07 63.6937 239.16 67.0637ZM414.31 251.814C414.31 253.094 408.29 253.094 406.31 251.814C405.23 251.114 406.12 250.844 409.56 250.834C412.17 250.824 414.31 251.264 414.31 251.814ZM390.54 154.234C390.9 156.144 390.51 156.734 388.65 157.084C385.82 157.634 385.77 157.314 388.2 154.234L390.08 151.834L390.54 154.234ZM128.18 67.1737C129.8 68.9037 130.06 69.6837 129.11 70.0137C127.41 70.6137 124.34 67.3737 125.24 65.9237C125.71 65.1737 126.69 65.5837 128.18 67.1737ZM473.88 59.7037C472.89 61.3037 470.31 61.0737 470.31 59.3737C470.31 58.5837 470.67 57.7137 471.11 57.4337C472.39 56.6437 474.63 58.4837 473.88 59.7037ZM214.31 285.814C214.31 287.014 210.6 287.014 207.81 285.814C206.26 285.144 206.77 284.934 210.06 284.884C212.4 284.844 214.31 285.264 214.31 285.814ZM210.31 259.814C208.34 261.084 205.31 261.084 205.31 259.814C205.31 259.264 206.77 258.824 208.56 258.834C211.03 258.844 211.45 259.074 210.31 259.814ZM407.81 277.814C407.47 278.364 406.35 278.814 405.31 278.814C404.27 278.814 403.15 278.364 402.81 277.814C402.45 277.234 403.49 276.814 405.31 276.814C407.13 276.814 408.17 277.234 407.81 277.814ZM375.31 178.124C375.31 179.604 374.89 180.814 374.37 180.814C372.67 180.814 372.46 179.324 373.9 177.364C375.24 175.524 375.31 175.564 375.31 178.124ZM327.28 70.5637C327.31 73.9937 326.62 74.7837 325.69 72.3737C325.39 71.5837 325.62 70.1237 326.2 69.1237C327.09 67.5837 327.25 67.8037 327.28 70.5637ZM246.31 87.6137C246.31 91.3537 245.78 91.7337 244.96 88.5837C244.64 87.3537 244.81 85.9137 245.34 85.3837C245.97 84.7537 246.31 85.5537 246.31 87.6137ZM250.31 225.814C250.31 226.914 249.86 227.814 249.31 227.814C248.76 227.814 248.31 226.914 248.31 225.814C248.31 224.714 248.76 223.814 249.31 223.814C249.86 223.814 250.31 224.714 250.31 225.814ZM342.31 227.194C342.31 228.084 341.64 228.814 340.81 228.814C339.98 228.814 339.31 228.644 339.31 228.434C339.31 228.224 339.98 227.494 340.81 226.814C342.04 225.794 342.31 225.864 342.31 227.194ZM304.47 237.814C304.47 239.194 304.69 239.754 304.97 239.064C305.25 238.374 305.25 237.254 304.97 236.564C304.69 235.874 304.47 236.434 304.47 237.814Z" fill="#267750"/>
<path d="M112.54 256.414C114.31 253.774 112.26 253.324 99.7199 253.604C92.6199 253.764 81.8699 253.264 75.8399 252.494C68.1799 251.524 63.7999 251.394 61.3399 252.074C57.3699 253.174 11.8499 252.544 9.05994 251.344C7.58994 250.724 7.30994 249.244 7.30994 242.104C7.30994 235.124 7.04994 233.694 5.86994 234.154C5.08994 234.454 4.24994 234.164 4.00994 233.504C3.76994 232.854 3.23993 234.914 2.81993 238.094C2.12993 243.404 2.25994 244.044 4.43994 245.974C6.02994 247.394 6.39994 248.234 5.55994 248.534C4.86994 248.774 4.30994 249.644 4.30994 250.454C4.30994 251.264 3.85994 251.654 3.30994 251.314C2.75994 250.974 2.30994 251.394 2.30994 252.254C2.30994 253.114 1.85994 253.814 1.30994 253.814C0.759939 253.814 0.309939 254.254 0.309939 254.784C0.309939 255.414 8.88994 255.544 24.0599 255.164C26.0799 255.114 28.4399 255.094 31.0499 255.084C28.7399 255.094 26.6099 255.124 24.6899 255.164C11.4299 255.484 0.359938 255.524 0.0899382 255.264C-0.180062 254.994 0.229942 251.294 0.999942 247.044C1.75994 242.794 3.03994 235.484 3.83994 230.814C4.78994 225.264 5.42993 221.814 6.06993 219.654C5.32993 223.054 4.77994 227.634 5.30994 227.314C5.71994 227.064 6.30995 225.564 6.62995 223.974L7.19994 221.094L21.0099 220.564C38.9299 219.864 43.4599 218.364 30.8599 217.304C24.4599 216.764 21.7899 216.864 21.5199 217.674C21.1199 218.884 15.5499 219.224 12.8999 218.214C12.0299 217.874 11.5699 217.204 11.8699 216.714C12.0999 216.344 11.6499 216.024 10.7999 215.884C16.4099 215.904 35.1199 217.324 50.3099 218.934C58.5899 219.814 76.8999 222.464 90.3699 224.664C89.3199 224.514 88.3299 224.384 87.4299 224.284C82.8499 223.784 81.2499 223.904 81.7399 224.704C82.1799 225.404 81.3999 225.864 79.6199 225.964C78.0699 226.044 75.9499 226.154 74.8999 226.214C73.8499 226.264 72.7999 226.874 72.5599 227.564C72.2399 228.534 76.0999 228.814 89.7299 228.814C99.4 228.814 107.31 228.624 107.31 228.394C107.31 227.984 102.46 226.814 97.0999 225.804C98.0599 225.974 98.9699 226.134 99.8099 226.294C104.21 227.104 110.51 228.264 113.81 228.864C121.43 230.254 151.56 237.804 161.81 240.884C208.8 255.034 231.25 263.524 266.61 280.524C277.51 285.754 286.59 289.864 286.81 289.644C287.23 289.234 270.18 266.944 256.81 250.414C252.41 244.974 247.57 238.924 246.05 236.974C231.61 218.424 151.11 137.574 104.29 94.1535C106.78 96.3035 107.02 96.2535 105.05 94.0635C104.09 92.9935 103.68 91.2935 103.99 89.6935C104.35 87.8035 103.85 86.4635 102.21 84.9435C100.96 83.7735 99.4099 82.8135 98.7799 82.8135C97.4099 82.8135 95.3099 78.5335 95.3099 75.7435C95.3099 74.1635 94.7899 73.8635 92.6899 74.2535C91.2399 74.5135 89.2599 75.4535 88.2799 76.3335C86.9699 77.5235 86.9599 78.1535 91.3899 82.3935L86.3899 77.9135L92.5999 72.5035C94.0199 71.2635 95.4999 70.0135 96.9999 68.7735L100.06 68.7935C102.65 68.8135 103.31 68.4035 103.31 66.8135C103.31 64.6235 102.68 64.3635 100.36 66.0235C107.21 60.5135 113.69 55.8235 115.41 55.2835C118.08 54.4335 118.22 54.5735 139.56 78.3135C144.05 83.3135 147.88 87.5735 151.22 91.3035C149.93 89.9335 147.41 87.1235 145.38 84.8135C142.37 81.3835 141.15 80.5935 140.26 81.4735C138.87 82.8535 139.82 84.8135 141.87 84.8135C142.85 84.8135 143.31 85.9335 143.31 88.3135C143.31 91.6335 143.49 91.8135 146.75 91.8135C148.64 91.8135 150.47 92.2635 150.81 92.8135C151.15 93.3635 151.92 93.8135 152.53 93.8135C153.01 93.8135 152.81 93.1635 152.1 92.2735C170.92 113.284 173.67 116.784 192.23 140.314C192.76 140.984 193.29 141.654 193.81 142.324C191.6 140.154 190.46 141.484 191.1 145.834C191.57 149.004 194.17 149.904 196.1 147.564C196.63 146.914 196.58 146.124 195.86 144.924C200.37 150.654 204.52 155.964 208.27 160.814C207.74 160.854 207.31 163.574 207.31 166.884C207.31 172.024 207.57 172.914 208.98 172.634C209.89 172.464 210.81 171.804 211.02 171.184C211.23 170.554 210.65 169.294 209.74 168.384C208.59 167.244 208.26 165.804 208.67 163.774C208.86 162.824 208.88 161.994 208.77 161.454C224.52 181.804 233.28 193.914 233.3 195.414C233.3 196.014 234.21 197.314 235.3 198.304C236.06 198.984 237.64 201.004 239.49 203.524L236.79 205.644C235.28 206.834 234.36 207.814 234.75 207.814C235.87 207.814 233.06 210.154 229.68 212.034C227.98 212.984 226.19 213.434 225.7 213.044C224.58 212.134 229.69 218.124 234.21 223.024C237.48 226.564 239.3 227.094 239.32 224.504C239.32 223.854 239.92 222.164 240.65 220.764C241.39 219.364 242.25 215.974 242.57 213.244C242.91 210.434 242.86 208.814 242.28 207.424C245.83 212.504 249.31 217.904 249.31 218.654C249.31 219.194 249.69 219.794 250.16 219.984C251.09 220.344 263.51 239.734 273.15 255.604C272.77 255.114 272.45 254.814 272.24 254.814C271.86 254.814 270.33 256.414 268.84 258.354C266.55 261.364 266.33 262.164 267.43 263.604C272.63 270.494 274.92 271.434 275.88 267.064C276.21 265.554 276.61 263.864 276.77 263.314C276.93 262.764 276.22 260.974 275.3 259.174C276.85 261.744 278.28 264.164 279.53 266.334C287.08 279.374 289.73 282.464 288.79 277.144C287.98 272.614 286.5 263.224 285.21 254.674C285.94 258.664 286.66 261.814 286.94 261.814C287.14 261.814 287.22 254.054 287.12 244.564C287.02 235.074 286.77 229.904 286.57 233.064C286.29 237.494 285.85 238.814 284.62 238.814C283.38 238.814 283.16 239.584 283.58 243.574C283.2 240.904 282.93 238.844 282.82 237.814C282.51 234.794 281.83 230.964 281.32 229.314C280.81 227.664 279.68 222.264 278.8 217.314C276.96 206.994 273.77 191.824 270.36 176.864C270.66 178.094 270.88 178.814 270.95 178.814C271.15 178.814 271.24 172.624 271.15 165.064C271.04 155.334 270.8 152.774 270.31 156.314C269.93 159.064 269.55 160.194 269.45 158.814C269.31 156.814 269.09 156.614 268.31 157.814C267.52 159.034 267.34 158.904 267.33 157.124C267.32 155.914 266.78 154.604 266.14 154.204C265.37 153.734 265.17 154.014 265.57 155.044C265.9 155.894 267.16 161.594 268.38 167.704C268.78 169.724 269.17 171.624 269.53 173.254C266.63 160.654 263.63 148.494 261.24 139.814C256.54 122.744 246.38 91.4035 244.36 87.7135C243.88 86.8335 241.85 82.1735 239.86 77.3635C235.46 66.7235 232.03 59.8535 223.65 44.8135C215.48 30.1435 215.84 30.7335 209.06 21.5035C205.9 17.2035 203.31 13.3735 203.31 12.9935C203.31 12.8135 204.64 12.3135 206.76 11.6435C205.56 12.3935 208.38 12.7535 215.31 12.7535C223.33 12.7535 225.37 12.4935 223.95 11.6735C222.82 11.0135 220.1 10.8535 217.11 11.2435C213.64 11.7035 212.34 11.5735 212.81 10.8235C213.19 10.2035 212.77 10.0135 211.5 10.2335C219.91 7.83353 232.03 4.79354 234.03 4.80354C235.63 4.81354 237.28 6.41354 239.95 10.5635C242.1 13.9135 246.01 21.3735 249.68 28.9435C249.54 28.8635 249.4 28.8135 249.26 28.8135C247.76 28.8135 247.11 30.8835 247.78 33.5535L248.44 36.1835L249.7 33.7535C250.21 32.7835 250.54 31.6435 250.6 30.8335C253.33 36.5335 255.84 42.0935 257.29 45.8135C262.87 60.1735 269.09 79.6035 273.71 96.5235C273.03 94.2835 272.45 92.8135 272.22 92.8135C271.07 92.8135 270.64 98.3435 271.11 107.284C271.5 114.624 271.81 115.814 273.34 115.814C274.41 115.814 275.52 114.634 276.14 112.864C276.86 110.804 276.73 108.524 275.5 103.264C277.43 110.774 278.96 117.514 279.84 122.704C280.62 127.324 281.45 131.294 281.69 131.534C282.21 132.044 281.61 114.484 280.24 88.8135C277.8 43.2335 276.98 25.2435 276.87 14.0535C276.97 14.0535 277.11 13.6235 277.29 12.8135C277.7 10.8835 278.17 9.99354 278.31 10.8135C278.45 11.6335 278.85 10.7435 279.19 8.81354L279.81 5.31354L294.53 5.03354C308.14 4.78354 309.41 4.91353 311.26 6.76353C313.31 8.81353 315.05 8.74354 315.85 6.88354C315.78 10.7135 315.56 16.3135 315.17 23.7335C314.99 22.5835 314.68 21.8135 314.33 21.8135C313.07 21.8135 311.92 26.3435 312.67 28.3135C313.42 30.2635 314.36 30.2535 314.89 28.8235C314.46 36.5235 313.88 45.8435 313.16 56.8135C311.61 80.3435 311.63 79.8235 310.97 103.314C310.29 127.474 310.41 127.574 315.34 106.814C315.62 105.614 315.98 104.184 316.37 102.604C315.42 106.614 315.24 109.204 316.22 107.814C317.07 106.614 317.31 106.904 317.45 109.314C317.54 110.964 317.72 112.764 317.85 113.314C317.97 113.864 318.13 114.874 318.19 115.564C318.26 116.254 318.53 116.814 318.81 116.814C319.09 116.814 319.27 111.524 319.21 105.064C319.11 93.5135 319.09 93.3935 317.72 97.7435C317.39 98.8135 317.08 99.8535 316.82 100.854C318.09 95.8735 319.67 89.9235 320.93 85.4335C324.24 73.6635 328.41 61.3435 332.89 49.8435C332.54 51.2435 332.66 52.2935 333.23 53.5435C333.83 54.8435 334.31 56.7835 334.31 57.8635C334.31 58.9335 334.53 59.8135 334.81 59.8135C335.09 59.8135 335.27 56.3235 335.23 52.0635L335.15 44.3135L334.48 45.8435C340.21 31.6135 346.32 18.9435 351.69 10.5635C354.58 6.04354 355.91 4.81354 357.91 4.81354C360.66 4.81354 379.56 9.32354 382.81 10.7535C383.45 11.0335 384.31 11.3735 385.1 11.6735C384.45 11.5935 383.67 11.5435 382.74 11.5135C380.85 11.4635 379.31 11.1035 379.31 10.7335C379.31 10.3535 376.32 10.2835 372.66 10.5735C367.89 10.9635 366.2 10.7935 366.7 9.99353C367.16 9.24353 366.28 8.91354 364.01 9.00354C362.15 9.07354 360.1 8.80354 359.47 8.41354C358.71 7.94354 358.31 8.54354 358.31 10.1435V12.6035L370.98 12.7535C377.95 12.8335 384.01 13.1235 384.44 13.3935C384.87 13.6635 384.97 14.5335 384.66 15.3435C384.06 16.8935 384.83 17.1435 385.84 16.3035C384.96 17.7135 383.66 19.6235 381.84 22.2235C381.6 22.5835 381.34 22.9535 381.09 23.3235L378.57 22.2735C376.15 21.2735 375.71 21.3835 375.02 23.1635C374.14 25.4435 374.75 27.8135 376.24 27.8135C376.79 27.8135 378.15 26.8235 379.28 25.6135L380.22 24.6035C375.01 32.3935 368.6 43.3435 362.44 54.9735C363.57 51.9035 363.54 50.5535 362.34 51.2935C361.81 51.6235 361.03 50.6435 360.62 49.1035L359.87 46.3135L359.32 49.8135C358.43 55.4235 359.64 58.9835 361.21 57.3135C360.34 58.9735 359.48 60.6435 358.63 62.3135C346.93 85.3235 332.37 128.874 322.87 168.984C322.89 167.564 322.53 166.274 321.82 165.184C319.99 162.404 319.83 153.734 321.56 151.864C322.36 151.004 322.39 150.754 321.65 151.174C321 151.534 320.25 151.264 319.97 150.574C319.7 149.884 319.43 154.524 319.39 160.894C319.35 167.264 319.61 172.784 319.98 173.144C320.8 173.964 321.4 174.004 321.9 173.174C321.85 173.394 321.8 173.604 321.75 173.814C317.08 194.314 311.51 222.914 307.57 245.554C308.12 241.194 307.84 240.034 306.38 237.434C305.33 235.564 304.27 232.744 304.04 231.174C303.8 229.604 303.54 234.204 303.46 241.394C303.38 248.594 303.61 254.784 303.98 255.144C304.96 256.134 305.57 255.974 306.15 253.884C303.66 268.794 302.15 279.764 302.54 281.664C302.74 282.614 304.95 279.514 307.78 274.314C309.52 271.114 311.75 267.204 314.32 262.844C314.46 263.264 315.6 264.724 316.99 266.224L319.66 269.104L321.74 266.544C322.76 265.284 324.82 262.744 326.55 260.604C320.91 268.104 313.79 277.444 311.25 280.664C311.69 280.084 312.14 279.424 312.53 278.814C314 276.504 313.99 276.064 312.31 272.994L310.49 269.674L306.8 276.274C303.78 281.664 303.33 283.134 304.34 284.354C305.55 285.804 306.33 285.584 309.5 282.654C307.76 284.744 305.23 289.074 305.66 289.494C305.97 289.804 313.56 286.444 322.52 282.034C339.94 273.444 362.24 264.114 386.69 255.164C406.5 247.924 411.56 246.294 432.81 240.364C435.56 239.604 440.96 238.084 444.81 236.994C459.51 232.844 482.32 227.764 494.81 225.854C501.96 224.764 515.08 222.744 523.97 221.364C539.65 218.924 555.65 217.294 575.37 216.134L584.94 215.564L588.12 233.544C588.4 235.064 588.66 236.574 588.91 238.044C588.69 237.894 588.36 237.814 587.92 237.814C587.15 237.814 586.25 237.114 585.92 236.254C585.59 235.394 584.87 234.964 584.32 235.314C583.01 236.124 583 245.814 584.31 245.814C584.86 245.814 585.31 245.024 585.31 244.054C585.31 243.084 586.21 241.734 587.31 241.044C588.25 240.464 588.86 239.824 589.12 239.264C590.39 246.724 591.31 252.794 591.31 253.804C591.31 255.874 591.26 256.074 584.04 255.604C587.96 255.754 590.31 255.534 590.31 254.924C590.31 252.734 581.14 251.774 569.81 252.794L562.81 253.414L571.31 254.474C574.11 254.824 576.71 255.094 579.03 255.294C567.24 254.674 549.01 254.754 531.14 255.364C535.38 255.004 537.17 254.324 536.23 253.404C535.66 252.854 521.92 252.724 497.82 253.044C479.39 253.294 477.81 253.454 477.49 255.144C476.94 257.994 480.05 259.664 484.19 258.724C484.93 258.564 486.75 258.334 489.23 258.084C477.4 259.434 478.65 260.104 494.18 261.734C513.14 263.744 532.08 267.714 549.28 273.194C547.14 272.874 545.57 273.224 544.16 274.204C542.9 275.094 540.5 275.894 538.84 275.994C537.17 276.084 538.96 276.454 542.81 276.814C552.48 277.704 552.5 277.704 555.31 276.854L557.81 276.094L557.7 276.054C562.75 277.864 567.61 279.814 572.24 281.884C571.94 281.794 571.5 281.704 570.93 281.594C569.41 281.304 568.65 281.544 568.92 282.224C569.2 282.964 567.83 283.214 564.82 282.974C561.99 282.744 560.31 283.024 560.31 283.714C560.31 285.284 569.43 285.034 571.59 283.404C572.57 282.654 572.96 282.304 572.62 282.054C574.82 283.054 576.97 284.064 579.06 285.114C582.76 286.964 585.42 288.354 587.3 289.464C585.85 289.034 584.7 289.104 583.67 289.664C582.65 290.214 580.91 290.994 579.81 291.394C578.04 292.044 578.15 292.214 580.81 292.874C582.46 293.284 584.71 293.404 585.81 293.134C586.91 292.864 588.6 292.654 589.56 292.664C590.29 292.674 590.78 292.574 591.04 292.384C591.23 292.694 591.31 292.984 591.31 293.274C591.3 294.924 588.37 310.874 586.68 318.884C586.88 317.424 586.89 316.004 586.69 315.194C586.06 312.664 583.31 311.104 583.31 313.284C583.31 314.054 581.76 315.244 579.86 315.934C577.97 316.614 576.64 317.544 576.92 317.994C577.2 318.444 576.88 318.814 576.22 318.814C575.46 318.814 577 320.274 578.94 321.744C578.38 321.384 577.78 320.974 577.12 320.524C554.68 305.284 530.39 294.614 500.68 287.164C505.32 288.164 506.59 288.024 508.61 287.014C510.16 286.234 511.27 285.444 511.08 285.244C510.88 285.054 507.28 284.784 503.08 284.644C498.66 284.504 495.52 283.984 495.63 283.404C495.73 282.854 495.36 282.344 494.81 282.274C492.18 281.934 488.52 279.794 487.92 278.254C487.31 276.654 485.32 276.594 460.04 277.404C433.77 278.244 428.29 278.254 415.31 277.494C412.01 277.304 409.31 277.524 409.31 277.984C409.31 278.434 410.39 278.814 411.7 278.814C413.02 278.814 414.33 279.424 414.62 280.174C414.89 280.884 415.89 281.204 418.43 281.214C416.91 281.344 415.53 281.494 414.31 281.664C388.38 285.174 364.8 294.704 350.12 307.604C346.99 310.354 344.06 312.764 343.6 312.964C340.89 314.124 333.06 327.274 329.32 336.944C323.88 351.004 321.85 374.474 324.66 390.814C326.8 403.264 343.81 475.264 353.83 515.374C353.17 513.614 352.82 514.024 352.27 515.814C351.12 519.584 351.15 531.814 352.31 531.814C352.86 531.814 353.31 530.714 353.31 529.364C353.31 528.014 354.02 526.514 354.89 526.024C355.71 525.574 356.06 525.104 355.99 523.974C358.34 533.244 360.08 539.734 360.78 541.714C361.71 544.354 362.19 546.514 362.22 548.284C361.9 546.604 360.78 546.254 359.81 547.814C359.47 548.364 357.64 548.814 355.75 548.814C350.84 548.814 351.49 550.624 356.56 551.084C358.9 551.294 361.15 551.544 361.56 551.644C361.23 552.304 360.78 552.894 360.21 553.414C358.19 555.234 355.51 555.324 296.96 555.534H296.34C240.08 555.744 232.33 555.774 230.43 552.454C230.12 551.904 229.96 551.274 229.78 550.534C229.6 549.794 229.94 547.244 230.63 543.944C230.44 544.914 230.33 546.054 230.33 547.114L230.31 550.914L239.29 550.734C244.23 550.634 248.06 550.224 247.82 549.824C247.44 549.214 244.19 548.744 232.46 547.614C231.47 547.514 231.26 546.494 231.68 543.894C232.08 541.414 231.96 540.774 231.3 541.814C231.1 542.124 230.91 542.664 230.76 543.324C231.18 541.314 231.72 539.074 232.33 536.814C234.04 530.484 235.85 523.364 236.36 520.994C236.43 520.644 236.56 520.084 236.73 519.344C236.07 522.684 236.12 527.984 236.92 532.314L237.66 536.314L238.6 532.514C239.11 530.424 239.2 525.704 238.8 522.014C238.21 516.604 237.9 515.764 237.19 517.644C237.11 517.864 237.03 518.104 236.96 518.374C238.12 513.434 240.63 503.114 243.25 492.494C246.79 478.174 249.85 465.744 252.48 454.904C251.05 461.094 251.03 462.104 252.31 461.314C252.92 460.934 253.32 462.554 253.33 465.504C253.34 468.974 253.61 469.894 254.31 468.814C254.84 467.984 255.28 463.934 255.28 459.814C255.28 450.684 254.17 448.284 252.7 453.974C266.12 398.704 268.45 385.074 268.42 371.034C268.37 349.644 263.08 332.194 252.45 318.354C237.16 298.454 215.3 287.744 176.81 281.294C170.82 280.294 153.88 279.864 140.51 280.164C140.69 280.154 140.88 280.144 141.06 280.144C150.55 279.794 158.31 279.174 158.31 278.774C158.31 278.014 109.19 276.304 105.87 276.944C104.83 277.154 103.8 277.834 103.59 278.474C103.31 279.314 105.4 279.484 111.31 279.074C115.87 278.764 119.33 278.914 119.24 279.414C118.93 281.104 119.25 281.754 120.5 281.634C114.21 282.454 107.82 283.554 101.41 284.914C103.19 284.374 104.31 283.934 104.31 283.744C104.31 282.544 98.4199 281.834 93.7899 282.474C91.3299 282.814 89.3099 283.474 89.3099 283.954C89.3099 284.424 87.0599 284.814 84.3099 284.814C79.1899 284.814 77.9499 285.924 81.0599 287.734C82.6999 288.684 83.6899 288.974 87.2499 288.324C73.4399 292.054 59.8299 296.874 47.2399 302.504C47.2799 302.324 47.3099 302.084 47.3099 301.814C47.3099 300.534 41.2899 300.534 39.3099 301.814C38.0399 302.634 38.0899 302.784 39.6199 302.794C40.6099 302.804 41.1699 303.234 40.8499 303.754C40.4899 304.334 41.5099 304.334 43.5299 303.754C44.4599 303.484 45.34 303.244 45.98 303.074C40.88 305.384 35.9499 307.834 31.2599 310.394C31.2899 310.274 31.3099 310.134 31.3099 309.974C31.3099 308.974 20.0299 308.454 17.2699 309.324C13.8799 310.404 14.9599 312.454 18.6899 312.014C20.5499 311.804 22.3799 312.114 22.7499 312.714C23.2099 313.464 24.4899 313.344 26.9899 312.304C28.0899 311.844 29.1399 311.424 29.8799 311.154C24.4099 314.194 19.2699 317.384 14.5399 320.694C17.1999 318.744 18.7499 317.134 18.1199 316.934C17.3999 316.704 16.4499 315.914 16.0099 315.164C15.4999 314.294 14.3099 314.024 12.7499 314.414C10.6399 314.944 10.0899 314.524 8.75994 311.354C7.18994 307.594 7.11995 296.544 8.65995 294.064C9.07995 293.374 10.6399 292.804 12.1199 292.794C14.2199 292.784 14.4799 292.574 13.3099 291.814C12.4899 291.284 10.5699 290.834 9.05994 290.834C7.54994 290.824 6.30994 290.354 6.30994 289.784C6.30994 289.224 4.84994 289.524 3.05994 290.454C1.26994 291.374 0.369939 292.324 1.05994 292.554C1.80994 292.814 2.07993 293.884 1.73993 295.234C1.49993 296.204 2.37993 302.544 3.48993 309.124C2.16993 302.324 0.789934 295.974 0.319934 294.564C-0.580066 291.834 -0.520058 291.794 13.6099 284.944C15.7499 283.904 17.9799 282.854 20.1699 281.844C18.6499 282.674 17.6599 283.584 17.9099 283.974C18.6399 285.164 29.0699 285.024 29.8099 283.814C30.1499 283.264 29.8399 282.744 29.1199 282.664C28.3999 282.574 27.3599 282.404 26.8099 282.274C26.2599 282.154 25.1299 281.984 24.3099 281.914C22.9799 281.794 22.9799 281.674 24.3099 280.814C26.1099 279.644 25.4099 279.584 23.3199 280.414C27.8699 278.364 31.8499 276.674 33.8099 276.004C34.9099 275.624 36.1199 275.224 37.4099 274.814C34.1099 275.914 33.5899 276.414 34.9099 276.924C35.9499 277.334 37.4099 277.484 38.1399 277.244C38.8699 277.004 42.8999 276.814 47.0899 276.814C55.1099 276.814 55.5299 276.014 48.6599 273.864C45.3299 272.814 43.9799 272.794 39.8499 274.034C49.5399 271.014 62.2799 267.544 67.2399 266.644C68.5299 266.414 70.0899 266.124 71.6399 265.834C71.1799 265.954 70.7299 266.074 70.3099 266.204C66.2499 267.454 66.0499 267.654 68.3099 268.194C74.2299 269.614 92.3499 270.074 94.2799 268.854C96.1899 267.644 95.3499 266.884 90.6399 265.554C86.9699 264.504 80.7399 264.404 75.4399 265.124C76.1399 264.994 76.7699 264.874 77.3099 264.774C89.4499 262.434 100.22 260.844 104 260.834C108.58 260.814 110.42 259.424 107.25 258.514C108.94 258.394 111.94 257.314 112.54 256.414ZM341.17 242.104C344 238.694 346.31 235.654 346.31 235.344C346.31 235.034 345.07 234.854 343.56 234.944C342.05 235.024 340.14 234.924 339.31 234.704C337.85 234.324 335.84 231.064 336.15 229.564C336.49 227.974 335.37 228.904 333.22 231.994C343.58 215.614 353.97 199.894 359.34 192.814C360.8 190.894 369.32 179.484 378.27 167.464C381.04 163.744 383.97 159.844 386.81 156.114C385.98 157.424 386.56 157.494 388.65 157.084C390.51 156.734 390.9 156.144 390.54 154.234L390.08 151.834L389.67 152.354C394.85 145.584 399.41 139.744 401.71 136.964C405.66 132.204 409.6 127.294 410.46 126.044C413.61 121.474 425.23 108.034 443.42 87.9035C458.91 70.7635 466.49 62.3135 470.51 58.2935C470.39 58.6335 470.31 59.0135 470.31 59.3735C470.31 61.0735 472.89 61.3036 473.88 59.7036C474.55 58.6136 472.85 57.0535 471.57 57.2635C473.78 55.1635 474.64 54.8035 475.37 54.9735C475.73 55.0635 476.06 55.2935 476.52 55.4935C478.71 56.4935 484.85 60.9235 490.66 65.5035C490.42 65.3935 490.14 65.3036 489.83 65.2336C487.02 64.5236 485.31 65.3335 485.31 67.3735C485.31 69.3335 490.91 69.2935 491.67 67.3235C491.82 66.9335 491.81 66.5935 491.66 66.2935C494.93 68.9035 498.01 71.5036 500.11 73.4836L505.23 78.3135L495.47 87.1335C495.85 86.7735 496.25 86.3835 496.66 85.9635C498.72 83.8535 500.32 81.7135 500.2 81.2135C500.09 80.7235 500.34 79.5135 500.77 78.5335C501.41 77.0635 501.81 76.9835 503.09 78.0335C504.46 79.1735 504.48 79.0735 503.23 77.0635C502.46 75.8235 501.46 74.8135 501.01 74.8135C500.56 74.8135 500.47 75.2535 500.8 75.8035C501.17 76.3935 500.19 76.6435 498.36 76.4335C495.52 76.1035 495.31 76.3035 495.31 79.2635C495.31 81.4835 494.49 83.1635 492.6 84.8135C490.91 86.2735 490.35 87.3235 491.1 87.5735C491.77 87.8035 492.07 88.3935 491.76 88.9035C490.65 90.6935 492.19 90.0236 494.53 87.9836L493.06 89.3135C485.48 96.1635 477.03 103.984 468.14 112.354L468.21 112.284C469.91 110.334 471.31 108.564 471.31 108.354C471.31 107.654 465.17 109.684 463.78 110.834C462.16 112.184 462.27 115.814 463.92 115.814C464.16 115.814 464.59 115.594 465.12 115.204C460.03 120.004 454.82 124.974 449.55 130.024C452.4 127.034 454.18 124.814 453.69 124.814C453.1 124.814 451.79 125.734 450.78 126.854C449.77 127.964 448.33 128.654 447.58 128.364C446.74 128.044 446.34 128.444 446.52 129.444C446.68 130.324 446.14 131.374 445.31 131.774C444.48 132.174 442.95 132.934 441.89 133.464C440.15 134.344 438.78 138.814 440.25 138.814C440.32 138.814 440.5 138.694 440.78 138.474C418.47 160.054 396.01 182.444 379.15 200.014C380.94 197.324 380.49 196.794 377.58 197.904C374.29 199.154 372.98 200.984 374.61 202.024C375.46 202.554 376.04 202.804 376.59 202.694C375.23 204.114 373.92 205.504 372.64 206.854C373.32 205.974 372.85 206.004 370.86 206.214C367.74 206.544 364.78 209.154 365.75 210.714C366.61 212.104 367.02 212.094 367.91 210.664C368.38 209.894 368.18 209.774 367.31 210.314C366.46 210.834 366.24 210.734 366.69 210.014C367.07 209.404 367.95 209.124 368.66 209.394C369.21 209.604 370.19 209.234 371.06 208.534C366.43 213.444 362.46 217.474 362.08 217.644C361.32 217.974 334.3 250.184 330.77 254.954C330.25 255.654 329.69 256.414 329.09 257.214C329.68 256.204 329.55 255.814 328.81 255.814C327.92 255.814 327.45 255.394 327.77 254.884C328.71 253.354 326.34 252.544 324.77 253.854C323.63 254.794 322.99 254.794 321.85 253.844C320.97 253.114 320.33 253.234 319.1 254.834C323.11 248.184 327.59 240.944 332.1 233.774C330.16 237.364 329.6 241.814 331.31 241.814C331.86 241.814 332.31 242.234 332.31 242.744C332.31 244.734 334.36 248.964 335.18 248.644C335.64 248.464 338.34 245.524 341.17 242.104ZM264.31 251.254C264.31 249.984 264.74 247.804 265.27 246.414C266.3 243.704 265.18 241.884 261.13 239.714C259.72 238.964 259.25 237.924 259.57 236.254C259.86 234.744 259.26 233.054 257.92 231.614L255.81 229.344L255.5 233.574C255.24 237.174 254.81 237.904 252.6 238.454C251.09 238.834 249.13 238.564 247.91 237.804C245.93 236.574 245.9 236.604 247.29 238.404C251.74 244.124 255.54 248.324 256.37 248.434C256.89 248.504 258.21 248.624 259.31 248.694C260.76 248.784 261.31 249.524 261.31 251.374C261.31 253.154 260.93 253.704 260.06 253.184C259.22 252.674 259.27 252.994 260.19 254.134C261.95 256.294 264.31 254.644 264.31 251.254ZM287.16 109.564C287.07 98.4435 286.74 93.0735 286.31 95.8135L285.61 100.314L285.46 95.5535C285.32 91.0635 285.2 90.8635 283.31 92.0435C279.55 94.3935 281.01 116.354 285.54 125.564C286.15 126.804 286.8 127.814 286.98 127.814C287.16 127.814 287.24 119.604 287.16 109.564ZM518.77 227.744C518.45 227.234 516.43 226.534 514.27 226.194C512.11 225.844 510.59 225.174 510.89 224.694C511.18 224.204 510.9 223.814 510.25 223.814C507.43 223.814 487.79 227.024 486.85 227.634C486.28 228.014 489.19 228.544 493.31 228.814C503.9 229.524 519.46 228.864 518.77 227.744ZM61.0599 296.644C64.4999 295.434 67.3099 294.074 67.3099 293.634C67.3099 292.964 61.5199 292.564 51.8099 292.564C47.7699 292.564 47.3099 292.894 47.3099 295.814C47.3099 298.614 47.5599 298.814 51.0599 298.824C53.1199 298.834 57.6199 297.844 61.0599 296.644ZM515.23 268.994C520.11 268.244 521.67 266.354 518.1 265.504C512.92 264.264 505.84 263.694 507.16 264.614C508.12 265.284 507.11 265.754 503.66 266.244C500.99 266.624 497.91 267.194 496.81 267.514L494.81 268.114L496.81 268.894C499.26 269.854 509.25 269.904 515.23 268.994ZM582.7 220.784C584.74 220.754 584.75 220.714 582.88 219.634C581.81 219.014 578.72 218.584 576.01 218.684C573.29 218.784 570.49 218.384 569.79 217.794C568.94 217.094 565.32 216.964 559.16 217.434C554.02 217.824 550.34 218.324 550.99 218.534C554.47 219.704 572.43 221.644 576.2 221.264C578.61 221.014 581.54 220.804 582.7 220.784ZM314.22 209.604C314.9 205.594 315.69 201.494 315.97 200.504C316.35 199.154 316.01 198.764 314.65 199.004C313.13 199.264 312.71 198.454 312.22 194.314L311.62 189.314L311.47 194.924C311.38 198.014 310.86 202.934 310.3 205.864C309.62 209.454 309.62 211.524 310.3 212.204C310.86 212.764 311.31 214.274 311.31 215.574C311.31 220.224 313 216.764 314.22 209.604ZM315.48 0.60353L308.76 1.03354C304.6 1.30354 300.69 2.03354 300.06 2.66354C298.71 4.01354 289.68 4.22354 288.88 2.92354C288.57 2.42354 286.63 1.79353 284.57 1.51353C282.5 1.22353 279.91 0.843533 278.81 0.653533C277.48 0.423533 277.02 0.653532 276.82 3.54353L276.81 0.313536L295.74 0.0435322C305.82 -0.106468 314.5 0.14353 315.48 0.60353ZM443.05 92.6735C445.78 94.1335 447.12 92.8135 447.49 88.3035C447.81 84.3335 447.83 84.3135 451.63 84.6435C455.4 84.9735 455.44 84.9335 455.13 81.7235C454.95 79.9335 454.36 78.3235 453.81 78.1435C453.26 77.9635 449.44 81.5235 445.33 86.0635C441.21 90.6035 438.59 93.7235 439.51 92.9935C440.7 92.0535 441.72 91.9635 443.05 92.6735ZM339.56 109.734C341.14 104.934 340.47 101.814 337.84 101.814C337.09 101.814 336.29 101.254 336.06 100.564C335.83 99.8735 335.34 102.544 334.98 106.484C333.89 118.164 336.24 119.824 339.56 109.734ZM427.34 280.664C429.69 280.394 431.46 280.064 431.81 279.794C432.82 279.014 465.1 280.264 470.98 281.314C472.73 281.624 474.42 281.444 474.75 280.914C475.08 280.384 474.1 279.764 472.58 279.534C471.06 279.304 472.56 279.044 475.91 278.964C481.24 278.834 482.38 279.154 484.88 281.464C486.59 283.044 489.34 284.294 494.01 285.564C488.63 284.334 483.07 283.204 477.31 282.154C468.24 280.514 444.4 279.954 427.34 280.664ZM542.56 295.884C544.01 295.754 543.29 293.024 541.65 292.394C540.73 292.034 537.24 292.084 533.9 292.484C530.55 292.884 527.25 293.104 526.56 292.974C524.15 292.504 525.34 293.924 528.46 295.234C531.03 296.314 535.51 296.524 542.56 295.884ZM247.24 490.504C247.17 479.384 247.16 479.344 245.66 483.314C244.13 487.334 243.59 495.594 244.61 499.314C244.91 500.414 245.19 501.674 245.23 502.124C245.28 502.564 245.76 502.654 246.31 502.314C246.89 501.954 247.28 496.964 247.24 490.504ZM270.37 379.814C271.72 379.814 271.53 376.434 270.11 375.014C269.18 374.084 269.18 373.814 270.11 373.814C270.96 373.814 271.29 371.244 271.24 365.064C271.2 359.544 270.87 357.054 270.36 358.314C269.64 360.074 269.49 359.954 269.09 357.314C268.85 355.664 268.65 361.514 268.66 370.314C268.68 379.114 268.86 384.854 269.06 383.064C269.27 381.274 269.86 379.814 270.37 379.814ZM337.31 465.534C337.31 464.284 337.98 462.294 338.81 461.114C340.3 458.994 340.15 457.434 338.04 453.044C337.24 451.384 336.74 451.114 336.15 452.044C334.97 453.894 335.12 467.814 336.31 467.814C336.86 467.814 337.31 466.794 337.31 465.534ZM255.33 110.144L254.81 100.974L252.68 102.714L250.55 104.444L253 112.224C254.35 116.504 255.54 119.844 255.65 119.654C255.76 119.474 255.62 115.184 255.33 110.144ZM470.84 235.864C470.48 235.284 469.29 234.814 468.19 234.814C467.08 234.814 465.27 234.324 464.16 233.734C462.01 232.584 452.31 234.264 452.31 235.784C452.31 236.214 456.63 236.644 461.9 236.734C468.39 236.864 471.28 236.574 470.84 235.864ZM287.44 282.414C288.02 280.254 287.87 279.764 286.77 280.194C286 280.484 284.72 280.074 283.92 279.284C282.81 278.174 282.35 278.124 281.97 279.074C281.59 280.004 281.19 279.934 280.4 278.814C279.02 276.864 279.01 275.514 280.38 276.364C280.98 276.734 280.9 276.124 280.19 274.994C279.49 273.884 278.14 273.024 277.19 273.094C276.23 273.174 275.67 273.594 275.95 274.034C276.22 274.484 276.87 274.584 277.38 274.274C277.89 273.954 278.31 274.534 278.31 275.554C278.31 277.954 284.21 286.014 285.62 285.544C286.22 285.344 287.03 283.934 287.44 282.414ZM344.29 34.3135C344.42 34.8635 344.89 33.7435 345.35 31.8135C345.95 29.2935 345.81 27.9335 344.85 26.9435C343.72 25.8035 343.17 26.3335 341.41 30.3235C339.18 35.3635 338.71 37.2935 340.31 34.8135C341.11 33.5835 341.28 33.6835 341.29 35.3935C341.32 38.7435 342.75 39.2435 343.44 36.1535C343.79 34.5935 344.17 33.7635 344.29 34.3135ZM217.29 25.6835C217.31 22.4035 215.38 20.7235 212.47 21.4835C211.5 21.7335 210.9 21.8735 210.72 22.2235C210.44 22.7635 211.15 23.8235 213.05 26.6235L213.3 26.9935C215.94 30.9035 217.27 30.4635 217.29 25.6835ZM135.98 235.314C135.98 234.484 135.49 233.804 134.89 233.804C134.3 233.794 132.73 233.494 131.4 233.144C129.72 232.694 129.21 232.844 129.71 233.654C130.21 234.464 129.08 234.814 125.93 234.814C123.45 234.814 121.15 235.264 120.81 235.814C120.42 236.444 123.08 236.814 128.08 236.814C134.43 236.814 135.98 236.524 135.98 235.314ZM280.37 219.694C279.81 217.284 279.3 211.934 279.23 207.814C279.15 202.504 278.88 201.044 278.31 202.814C277.69 204.764 277.49 204.894 277.41 203.394C277.35 202.344 277.06 201.734 276.75 202.044C276.21 202.584 277.31 209.874 279.48 220.134C280.05 222.784 280.7 224.754 280.94 224.514C281.18 224.274 280.92 222.104 280.37 219.694ZM367.31 191.374C367.31 188.384 366.91 185.684 366.42 185.384C364.96 184.474 363.5 187.174 364.3 189.314C364.71 190.414 364.68 192.284 364.24 193.464C363.37 195.794 363.9 196.814 365.98 196.814C366.92 196.814 367.31 195.244 367.31 191.374ZM278.27 20.0135C277.47 18.7635 277.33 21.5835 277.75 30.7235C278.06 37.5435 278.41 46.0935 278.53 49.7235C278.66 53.3435 278.89 48.5335 279.06 39.0135C279.25 27.7635 278.98 21.1235 278.27 20.0135ZM262.73 427.064C262.57 423.354 262.38 419.414 262.31 418.314L262.18 416.314L261.37 418.314C259.98 421.774 259.05 429.524 260.24 427.814C261.06 426.634 261.28 426.964 261.29 429.394C261.31 431.964 261.95 433.814 262.83 433.814C262.94 433.814 262.89 430.774 262.73 427.064ZM263.24 130.894C263.28 127.364 263.1 124.694 262.83 124.954C262.35 125.444 261.52 129.254 261.38 131.624C261.34 132.344 260.81 132.624 260.2 132.244C259.48 131.804 259.29 132.224 259.66 133.434C259.96 134.474 260.53 136.644 260.92 138.274C261.55 140.894 261.72 141.014 262.4 139.274C262.82 138.194 263.2 134.424 263.24 130.894ZM164.01 243.424C163.72 241.834 162.12 240.844 159.81 240.844C158.15 240.844 158.07 241.014 159.31 241.814C160.89 242.834 160.06 243.004 152.65 243.224C150.91 243.274 149.12 243.674 148.67 244.124C148.23 244.564 151.54 244.844 156.04 244.734C161.39 244.604 164.15 244.154 164.01 243.424ZM573.1 311.214C576.99 310.434 574.46 308.814 569.33 308.814C564.02 308.814 560.55 309.724 562.15 310.714C563.43 311.504 570.12 311.814 573.1 311.214ZM365.69 267.354C364.74 264.894 361.82 264.674 357.21 266.724L352.81 268.674L359.53 268.744C365.03 268.804 366.15 268.554 365.69 267.354ZM353.31 210.814C353.31 209.164 352.81 207.814 352.2 207.814C351.58 207.814 351.36 207.044 351.7 206.064C352.04 205.104 351.2 205.644 349.85 207.284C347.57 210.024 347.51 210.374 349.01 212.034C351.48 214.764 353.31 214.244 353.31 210.814ZM359.73 203.204C361.46 202.544 361.92 199.814 360.31 199.814C359.76 199.814 359.3 198.354 359.28 196.564C359.25 193.524 359.15 193.434 357.81 195.214C357.02 196.254 356.68 197.604 357.06 198.214C357.44 198.814 357.62 200.324 357.46 201.564C357.14 203.994 357.33 204.124 359.73 203.204ZM305.38 123.814C305.89 123.814 306.31 122.464 306.31 120.814C306.31 119.164 305.88 117.814 305.35 117.814C304.83 117.814 304.24 114.554 304.05 110.564C303.86 106.574 303.68 108.934 303.64 115.814C303.61 122.694 303.78 127.304 304.02 126.064C304.25 124.824 304.87 123.814 305.38 123.814ZM436.85 243.684C434.68 243.174 432.61 242.304 432.27 241.754C431.87 241.094 430.82 241.084 429.23 241.724C427.84 242.274 427.45 242.744 428.31 242.824C429.35 242.914 429.2 243.214 427.81 243.814C426.46 244.394 428.27 244.664 433.31 244.644C440.13 244.614 440.45 244.524 436.85 243.684ZM257.45 58.0635C257.53 57.1035 257.54 55.2035 257.48 53.8535C257.41 52.5035 257.91 51.0635 258.57 50.6535C259.31 50.1935 258.9 49.9635 257.55 50.0735C255.57 50.2235 255.31 50.7835 255.31 55.0235C255.31 57.6635 255.76 59.8135 256.31 59.8135C256.86 59.8135 257.37 59.0235 257.45 58.0635ZM346.29 494.624C346.31 491.504 344.8 490.094 343.91 492.404C343.1 494.514 343.15 498.314 343.99 499.164C345.01 500.184 346.28 497.684 346.29 494.624ZM232.95 199.024C231.59 197.664 231.36 197.784 230.75 200.214C230.24 202.234 230.54 203.264 231.94 204.294C233.63 205.544 233.84 205.434 234.14 203.114C234.32 201.704 233.78 199.864 232.95 199.024ZM424.02 115.144C424.63 113.864 424.72 113.064 424.22 113.374C423.72 113.684 423.31 113.204 423.31 112.314C423.31 111.164 422.63 111.494 420.9 113.504C418.61 116.164 418.86 117.484 421.65 117.484C422.35 117.484 423.42 116.434 424.02 115.144ZM327.28 80.5635C327.25 76.8635 327.1 76.5735 326.1 78.3135C325.47 79.4135 324.25 80.9135 323.38 81.6335C322.52 82.3635 322.37 82.6735 323.06 82.3335C323.8 81.9535 324.31 82.3335 324.31 83.2535C324.31 84.1135 324.98 84.8135 325.81 84.8135C326.91 84.8135 327.3 83.6835 327.28 80.5635ZM125.13 110.094C124.54 109.394 123.31 108.814 122.39 108.814C120.35 108.814 118.37 106.984 118.72 105.444C118.87 104.824 118.78 104.684 118.54 105.134C118.29 105.594 116.91 104.924 115.45 103.664C114 102.394 115.49 104.154 118.76 107.574C122.74 111.724 124.96 113.384 125.45 112.584C125.86 111.924 125.72 110.804 125.13 110.094ZM383.31 168.314C383.31 163.064 381.71 162.244 381.13 167.204C380.68 171.074 381.07 172.814 382.39 172.814C382.9 172.814 383.31 170.794 383.31 168.314ZM246.81 230.814C245.99 229.484 243.31 229.534 243.31 230.874C243.31 231.454 242.78 231.604 242.14 231.204C241.5 230.814 241.83 231.624 242.88 233.024C244.72 235.454 244.85 235.484 246.11 233.684C246.83 232.654 247.15 231.364 246.81 230.814ZM188.31 277.564C188.31 276.564 180.82 276.714 175.81 277.804C172.51 278.524 173.26 278.644 180.06 278.494C184.59 278.394 188.31 277.974 188.31 277.564ZM552.14 302.794C553.58 302.784 553.61 302.654 552.31 301.814C551.48 301.284 549.01 300.854 546.81 300.864C542.84 300.884 542.83 300.894 545.31 302.314C546.69 303.104 548.41 303.534 549.14 303.284C549.87 303.024 551.22 302.804 552.14 302.794ZM415.14 126.844C414.98 121.804 414.93 121.694 414.58 125.584C414.37 127.934 413.86 129.654 413.45 129.404C413.04 129.154 412.17 129.814 411.51 130.864C410.44 132.584 410.58 132.774 412.81 132.584C415.17 132.394 415.3 132.074 415.14 126.844ZM231.3 52.0635V47.3135L229.82 50.1535C228.74 52.2235 228.61 53.5135 229.36 54.9035C230.92 57.8135 231.31 57.2435 231.3 52.0635ZM399.19 144.564C399.13 142.224 398.87 141.214 398.61 142.314C398.35 143.414 397.46 144.844 396.63 145.494C394.92 146.824 395.67 148.814 397.87 148.814C398.92 148.814 399.28 147.654 399.19 144.564ZM387.69 285.794C387.09 285.194 384.74 285.094 381.75 285.554L376.81 286.314L382.31 286.814C388.41 287.374 389.14 287.244 387.69 285.794ZM239.16 67.0635C239.07 63.6935 238.83 62.5535 238.57 64.3135C238.33 65.9535 237.67 67.5935 237.12 67.9335C236.44 68.3535 236.49 69.2735 237.24 70.6835C238.99 73.9435 239.32 73.3035 239.16 67.0635ZM414.31 251.814C414.31 251.264 412.17 250.824 409.56 250.834C406.12 250.844 405.23 251.114 406.31 251.814C408.29 253.094 414.31 253.094 414.31 251.814ZM128.18 67.1735C126.69 65.5835 125.71 65.1735 125.24 65.9235C124.34 67.3735 127.41 70.6135 129.11 70.0135C130.06 69.6835 129.8 68.9035 128.18 67.1735ZM214.31 285.814C214.31 285.264 212.4 284.844 210.06 284.884C206.77 284.934 206.26 285.144 207.81 285.814C210.6 287.014 214.31 287.014 214.31 285.814ZM210.31 259.814C211.45 259.074 211.03 258.844 208.56 258.834C206.77 258.824 205.31 259.264 205.31 259.814C205.31 261.084 208.34 261.084 210.31 259.814ZM407.81 277.814C408.17 277.234 407.13 276.814 405.31 276.814C403.49 276.814 402.45 277.234 402.81 277.814C403.15 278.364 404.27 278.814 405.31 278.814C406.35 278.814 407.47 278.364 407.81 277.814ZM375.31 178.124C375.31 175.564 375.24 175.524 373.9 177.364C372.46 179.324 372.67 180.814 374.37 180.814C374.89 180.814 375.31 179.604 375.31 178.124ZM327.28 70.5635C327.25 67.8035 327.09 67.5835 326.2 69.1235C325.62 70.1235 325.39 71.5835 325.69 72.3735C326.62 74.7835 327.31 73.9935 327.28 70.5635ZM246.31 87.6135C246.31 85.5535 245.97 84.7535 245.34 85.3835C244.81 85.9135 244.64 87.3535 244.96 88.5835C245.78 91.7335 246.31 91.3535 246.31 87.6135ZM250.31 225.814C250.31 224.714 249.86 223.814 249.31 223.814C248.76 223.814 248.31 224.714 248.31 225.814C248.31 226.914 248.76 227.814 249.31 227.814C249.86 227.814 250.31 226.914 250.31 225.814ZM342.31 227.194C342.31 225.864 342.04 225.794 340.81 226.814C339.98 227.494 339.31 228.224 339.31 228.434C339.31 228.644 339.98 228.814 340.81 228.814C341.64 228.814 342.31 228.084 342.31 227.194ZM304.47 237.814C304.47 236.434 304.69 235.874 304.97 236.564C305.25 237.254 305.25 238.374 304.97 239.064C304.69 239.754 304.47 239.194 304.47 237.814ZM79.2299 256.284C93.1899 256.894 104.37 257.634 105.99 258.244C102.08 257.574 91.6799 256.864 79.2299 256.284ZM584.37 324.624C584.93 324.274 585.59 323.124 586.06 321.694C585.92 322.304 585.8 322.774 585.71 323.064C585.4 324.074 585.1 324.634 584.37 324.624ZM120.73 281.604C120.97 281.564 121.25 281.504 121.56 281.414C122.16 281.244 124.57 281.014 127.98 280.794C125.58 281.014 123.16 281.284 120.73 281.604ZM6.85994 324.904C7.06994 325.154 8.31994 324.634 10.0499 323.644C8.28994 324.674 7.04995 325.194 6.87995 324.924C6.86995 324.914 6.86994 324.904 6.85994 324.904Z" fill="#267750"/>
<path d="M281.109 106.253C281.839 122.083 282.079 131.913 281.689 131.533C281.449 131.293 280.619 127.323 279.839 122.703C279.139 118.593 278.039 113.513 276.649 107.843C278.039 113.313 279.249 118.413 280.159 122.813C281.059 127.123 281.379 118.473 281.109 106.253ZM264.489 66.0135C262.659 60.4735 260.789 55.1435 258.969 50.2435C260.679 54.7335 262.559 60.1335 264.489 66.0135ZM239.949 10.5635C241.949 13.6735 244.889 19.2035 247.959 25.4435C244.839 19.1635 241.769 13.3935 239.949 10.5635ZM277.899 43.2435C278.139 48.4335 278.439 54.3935 278.789 61.3035C278.459 55.0935 278.159 48.9835 277.899 43.2435Z" fill="#267750"/>
</svg>
